<svg width="37" height="37" viewBox="0 0 37 37" fill="none" xmlns="http://www.w3.org/2000/svg">
<path d="M36.7865 7.73027C36.5747 7.42672 36.2339 7.23909 35.8637 7.22328L12.9122 6.23397C12.2537 6.20515 11.7034 6.71355 11.6752 7.36901C11.6473 8.02422 12.1548 8.57782 12.8102 8.60598L34.2078 9.52838L30.0006 22.6552H11.278L7.89545 4.23763C7.82109 3.83397 7.54396 3.49722 7.16175 3.34727L1.62176 1.17084C1.01118 0.931789 0.322194 1.2317 0.0824017 1.84153C-0.156977 2.45169 0.142847 3.14109 0.753092 3.38089L5.67902 5.31603L9.12124 24.0569C9.22499 24.6202 9.716 25.0294 10.2891 25.0294H10.8601L9.55619 28.6512C9.44706 28.9546 9.49202 29.2915 9.67775 29.555C9.86322 29.8187 10.1649 29.9755 10.4869 29.9755H11.4014C10.8347 30.6062 10.4869 31.4366 10.4869 32.3498C10.4869 34.3137 12.0849 35.9113 14.0483 35.9113C16.0118 35.9113 17.6098 34.3137 17.6098 32.3498C17.6098 31.4367 17.2619 30.6062 16.6953 29.9755H24.4602C23.8932 30.6062 23.5455 31.4366 23.5455 32.3498C23.5455 34.3137 25.143 35.9113 27.1069 35.9113C29.0709 35.9113 30.6684 34.3137 30.6684 32.3498C30.6684 31.4367 30.3206 30.6062 29.7541 29.9755H30.8663C31.4128 29.9755 31.8556 29.5326 31.8556 28.9863C31.8556 28.4398 31.4127 27.997 30.8663 27.997H11.8945L12.9628 25.0291H30.8662C31.3824 25.0291 31.8393 24.6956 31.9965 24.2044L36.943 8.77133C37.0566 8.41909 36.9983 8.03399 36.7865 7.73027ZM14.0484 33.9331C13.1754 33.9331 12.4655 33.2232 12.4655 32.3502C12.4655 31.4773 13.1754 30.7673 14.0484 30.7673C14.9214 30.7673 15.6312 31.4773 15.6312 32.3502C15.6312 33.2232 14.9214 33.9331 14.0484 33.9331ZM27.1069 33.9331C26.2339 33.9331 25.5241 33.2232 25.5241 32.3502C25.5241 31.4773 26.2339 30.7673 27.1069 30.7673C27.9799 30.7673 28.6898 31.4773 28.6898 32.3502C28.6898 33.2232 27.9799 33.9331 27.1069 33.9331Z" fill="#6D6767"/>
</svg>
