<svg width="26" height="31" viewBox="0 0 26 31" fill="none" xmlns="http://www.w3.org/2000/svg">
<path fill-rule="evenodd" clip-rule="evenodd" d="M17.4681 8.41488C17.4681 10.8884 15.4629 12.8936 12.9894 12.8936C10.5159 12.8936 8.51066 10.8884 8.51066 8.41488C8.51066 5.94135 10.5159 3.93616 12.9894 3.93616C15.4629 3.93616 17.4681 5.94135 17.4681 8.41488ZM20.4681 8.41488C20.4681 12.5453 17.1198 15.8936 12.9894 15.8936C8.859 15.8936 5.51066 12.5453 5.51066 8.41488C5.51066 4.2845 8.859 0.936157 12.9894 0.936157C17.1198 0.936157 20.4681 4.2845 20.4681 8.41488ZM3.00172 30.851H0C0.0308038 29.8161 0.182675 28.8115 0.441939 27.851C1.93413 22.323 6.98379 18.2553 12.9835 18.2553C18.9832 18.2553 24.0329 22.323 25.5251 27.8511C25.7843 28.8115 25.9362 29.8161 25.967 30.8511H22.9653L3.00172 30.851ZM12.9835 21.2553C17.3089 21.2553 20.9928 24.005 22.3819 27.8511L3.58513 27.851C4.97418 24.005 8.65808 21.2553 12.9835 21.2553Z" fill="#6D6767"/>
</svg>
